<svg xmlns="http://www.w3.org/2000/svg" xmlns:xlink="http://www.w3.org/1999/xlink" version="1.1" width="256" height="256" viewBox="0 0 256 256" xml:space="preserve">
<desc>Created with Fabric.js 1.7.22</desc>
<defs>
</defs>
<g transform="translate(128 128) scale(0.72 0.72)" style="">
	<g style="stroke: none; stroke-width: 0; stroke-dasharray: none; stroke-linecap: butt; stroke-linejoin: miter; stroke-miterlimit: 10; fill: none; fill-rule: nonzero; opacity: 1;" transform="translate(-175.05 -175.05000000000004) scale(3.89 3.89)" >
	<path d="M 15.05 35.268 c -0.243 0 -0.491 -0.044 -0.73 -0.139 c -1.028 -0.404 -1.534 -1.565 -1.131 -2.593 c 3.723 -9.479 11.395 -16.759 21.049 -19.974 c 1.046 -0.351 2.18 0.218 2.529 1.266 c 0.349 1.048 -0.218 2.181 -1.266 2.529 c -8.526 2.839 -15.302 9.269 -18.589 17.641 C 16.603 34.786 15.849 35.268 15.05 35.268 z" style="stroke: none; stroke-width: 1; stroke-dasharray: none; stroke-linecap: butt; stroke-linejoin: miter; stroke-miterlimit: 10; fill: rgb(255,198,50); fill-rule: nonzero; opacity: 1;" transform=" matrix(1 0 0 1 0 0) " stroke-linecap="round" />
	<path d="M 45.059 79.272 c -1.104 0 -2 -0.896 -2 -2 s 0.896 -2 2 -2 c 16.667 0 30.228 -13.561 30.228 -30.229 c 0 -1.104 0.896 -2 2 -2 s 2 0.896 2 2 C 79.287 63.918 63.933 79.272 45.059 79.272 z" style="stroke: none; stroke-width: 1; stroke-dasharray: none; stroke-linecap: butt; stroke-linejoin: miter; stroke-miterlimit: 10; fill: rgb(255,198,50); fill-rule: nonzero; opacity: 1;" transform=" matrix(1 0 0 1 0 0) " stroke-linecap="round" />
	<path d="M 45 90 C 20.187 90 0 69.813 0 45 C 0 20.187 20.187 0 45 0 c 6.984 0 13.681 1.557 19.9 4.628 c 0.99 0.489 1.396 1.688 0.907 2.679 c -0.488 0.99 -1.687 1.397 -2.679 0.908 C 57.465 5.418 51.365 4 45 4 C 22.393 4 4 22.393 4 45 s 18.393 41 41 41 s 41 -18.393 41 -41 c 0 -7.9 -2.251 -15.569 -6.509 -22.177 c -0.599 -0.929 -0.331 -2.167 0.598 -2.765 c 0.929 -0.597 2.166 -0.331 2.765 0.598 C 87.528 27.912 90 36.33 90 45 C 90 69.813 69.813 90 45 90 z" style="stroke: none; stroke-width: 1; stroke-dasharray: none; stroke-linecap: butt; stroke-linejoin: miter; stroke-miterlimit: 10; fill: rgb(255,198,50); fill-rule: nonzero; opacity: 1;" transform=" matrix(1 0 0 1 0 0) " stroke-linecap="round" />
	<path d="M 79.113 10.97 h -2.936 V 8.034 c 0 -1.104 -0.896 -2 -2 -2 s -2 0.896 -2 2 v 2.936 h -2.936 c -1.104 0 -2 0.896 -2 2 s 0.896 2 2 2 h 2.936 v 2.936 c 0 1.104 0.896 2 2 2 s 2 -0.896 2 -2 V 14.97 h 2.936 c 1.104 0 2 -0.896 2 -2 S 80.218 10.97 79.113 10.97 z" style="stroke: none; stroke-width: 1; stroke-dasharray: none; stroke-linecap: butt; stroke-linejoin: miter; stroke-miterlimit: 10; fill: rgb(255,198,50); fill-rule: nonzero; opacity: 1;" transform=" matrix(1 0 0 1 0 0) " stroke-linecap="round" />
	<path d="M 56.616 34.533 c 0 -3.328 -2.895 -6.035 -6.453 -6.035 h -3.39 V 25.5 c 0 -1.104 -0.896 -2 -2 -2 s -2 0.896 -2 2 v 2.998 h -7.389 c -1.104 0 -2 0.896 -2 2 s 0.896 2 2 2 h 0.115 v 24.563 h -0.115 c -1.104 0 -2 0.896 -2 2 s 0.896 2 2 2 h 7.389 V 64.5 c 0 1.104 0.896 2 2 2 s 2 -0.896 2 -2 v -3.438 h 3.39 c 3.559 0 6.453 -2.707 6.453 -6.035 v -6.211 c 0 -1.552 -0.635 -2.965 -1.668 -4.036 c 1.033 -1.07 1.668 -2.483 1.668 -4.035 V 34.533 z M 50.163 32.498 c 1.33 0 2.453 0.932 2.453 2.035 v 6.211 c 0 1.103 -1.123 2.035 -2.453 2.035 H 39.499 V 32.498 H 50.163 z M 52.616 55.026 c 0 1.104 -1.123 2.035 -2.453 2.035 H 39.499 V 46.779 h 10.654 c 0.003 0 0.006 0.001 0.01 0.001 c 1.33 0 2.453 0.932 2.453 2.035 V 55.026 z" style="stroke: none; stroke-width: 1; stroke-dasharray: none; stroke-linecap: butt; stroke-linejoin: miter; stroke-miterlimit: 10; fill: rgb(255,198,50); fill-rule: nonzero; opacity: 1;" transform=" matrix(1 0 0 1 0 0) " stroke-linecap="round" />
</g>
</g>
</svg>